HIERARCHY
ROOT Hips
{
	OFFSET 0.00 0.00 0.00
	CHANNELS 6 Xposition Yposition Zposition Zrotation Xrotation Yrotation
	JOINT Spine
	{
		OFFSET 0.00 20.00 0.00
		CHANNELS 3 Zrotation Xrotation Yrotation
		JOINT Neck
		{
			OFFSET 0.00 20.00 0.00
			CHANNELS 3 Zrotation Xrotation Yrotation
			JOINT Head
			{
				OFFSET 0.00 12.00 0.00
				CHANNELS 3 Zrotation Xrotation Yrotation
				End Site
				{
					OFFSET 0.00 10.00 0.00
				}
			}
		}
		JOINT LeftArm
		{
			OFFSET 12.00 0.00 0.00
			CHANNELS 3 Zrotation Xrotation Yrotation
			JOINT LeftForeArm
			{
				OFFSET 25.00 0.00 0.00
				CHANNELS 3 Zrotation Xrotation Yrotation
				JOINT LeftHand
				{
					OFFSET 22.00 0.00 0.00
					CHANNELS 3 Zrotation Xrotation Yrotation
					End Site
					{
						OFFSET 10.00 0.00 0.00
					}
				}
			}
		}
		JOINT RightArm
		{
			OFFSET -12.00 0.00 0.00
			CHANNELS 3 Zrotation Xrotation Yrotation
			JOINT RightForeArm
			{
				OFFSET -25.00 0.00 0.00
				CHANNELS 3 Zrotation Xrotation Yrotation
				JOINT RightHand
				{
					OFFSET -22.00 0.00 0.00
					CHANNELS 3 Zrotation Xrotation Yrotation
					End Site
					{
						OFFSET -10.00 0.00 0.00
					}
				}
			}
		}
	}
	JOINT LeftUpLeg
	{
		OFFSET 9.00 -8.00 0.00
		CHANNELS 3 Zrotation Xrotation Yrotation
		JOINT LeftLeg
		{
			OFFSET 0.00 -42.00 0.00
			CHANNELS 3 Zrotation Xrotation Yrotation
			JOINT LeftFoot
			{
				OFFSET 0.00 -40.00 0.00
				CHANNELS 3 Zrotation Xrotation Yrotation
				End Site
				{
					OFFSET 0.00 0.00 15.00
				}
			}
		}
	}
	JOINT RightUpLeg
	{
		OFFSET -9.00 -8.00 0.00
		CHANNELS 3 Zrotation Xrotation Yrotation
		JOINT RightLeg
		{
			OFFSET 0.00 -42.00 0.00
			CHANNELS 3 Zrotation Xrotation Yrotation
			JOINT RightFoot
			{
				OFFSET 0.00 -40.00 0.00
				CHANNELS 3 Zrotation Xrotation Yrotation
				End Site
				{
					OFFSET 0.00 0.00 15.00
				}
			}
		}
	}
}
MOTION
Frames: 27
Frame Time: 0.093535
0.2837 -33.2943 -0.0753 2.8825 -2.0365 61.1505 0.0000 0.0000 0.0000 0.0000 0.0000 0.0000 45.4213 32.2447 13.7961 47.0538 -2.6762 6.1423 -107.1887 17.7484 13.1358 -36.2635 -9.0771 -27.2518 -52.8570 2.7079 5.4452 92.4235 -11.8565 11.3686 -31.9181 10.7216 36.3331 39.4525 0.0000 0.0000 -49.2280 -13.4299 6.1750 59.1935 39.4456 23.0195 -43.8145 0.0000 0.0000 44.5141 2.7907 1.1423 42.3634 22.1438 8.6727
0.3564 -32.9896 -0.0639 0.2582 -3.4573 60.3208 0.0000 0.0000 0.0000 0.0000 0.0000 0.0000 47.6936 34.2364 15.5051 47.6710 -3.4450 7.7881 -98.2415 17.5180 15.1930 -32.6253 -7.7406 -26.0320 -50.2169 3.4725 7.4021 86.1173 -8.4550 9.0460 -29.5177 10.7187 39.2017 41.8340 0.0000 -0.0000 -47.8984 -12.2101 5.4399 59.6421 38.4233 22.5910 -41.4331 0.0000 -0.0000 42.6737 3.0603 1.1957 41.4031 20.2689 7.7288
0.9074 -33.0988 -0.0550 -4.2168 -6.8061 52.9896 0.0000 0.0000 0.0000 0.0000 0.0000 0.0000 54.9793 41.0430 22.0429 57.3577 -3.0669 5.6037 -128.6323 23.6786 11.5135 -63.7360 -19.2954 -30.5870 -56.5613 3.0815 5.7242 100.7227 -11.0504 9.1631 -27.2043 17.1973 64.0050 46.1959 0.0000 0.0000 -45.8963 -7.2439 3.0705 54.0636 41.0412 21.6236 -37.0712 0.0000 -0.0000 44.1288 8.0643 3.2732 36.7733 23.6111 7.9485
1.2548 -33.3529 -0.0552 -3.7493 -6.5447 48.6397 0.0000 0.0000 0.0000 0.0000 0.0000 0.0000 56.1397 43.3738 23.9472 59.8969 -2.3677 4.1084 -125.2420 31.9568 16.8699 -72.0099 -14.9850 -20.5176 -59.5363 2.3760 4.1528 106.2003 -12.9833 9.7663 -41.1158 23.3227 57.6489 45.9831 0.0000 0.0000 -44.7931 -6.5564 2.7043 53.2582 44.0062 22.9073 -37.2839 0.0000 0.0000 38.6192 3.6595 1.2826 43.8099 29.6636 12.1556
1.3402 -32.6926 -0.0501 -1.4919 -4.4502 45.8176 0.0000 0.0000 0.0000 0.0000 0.0000 0.0000 50.5801 43.6843 21.4478 61.3339 -1.4545 2.4526 -104.9510 33.1875 25.7816 -53.2066 -15.7754 -30.9254 -61.8774 1.4447 2.4100 119.8057 6.3815 -3.7013 9.6897 -9.3024 87.6531 45.3262 0.0000 -0.0000 -44.5506 -7.4635 3.0609 48.0955 45.0411 20.9648 -37.9408 0.0000 0.0000 36.7499 0.3713 0.1233 38.4458 27.4915 9.7505
1.9729 -32.3419 -0.0419 -3.0364 -7.2712 35.2359 0.0000 0.0000 0.0000 0.0000 0.0000 0.0000 51.6974 52.9615 27.1370 64.1962 -1.2011 1.9147 -65.8159 34.0359 50.6258 -20.7711 -5.8841 -31.3290 -63.2446 1.2193 1.9801 12.9790 25.1226 -125.9108 -28.8016 2.0044 7.7949 47.0054 0.0000 0.0000 -52.3853 -14.8813 7.3515 112.2336 61.3651 82.9244 -36.2617 0.0000 0.0000 27.6897 -12.7259 -3.1485 91.5560 49.2618 50.4513
2.4618 -31.4672 -0.0386 -2.7113 -10.3838 20.3409 0.0000 0.0000 0.0000 0.0000 0.0000 0.0000 34.9788 61.1919 21.1083 66.7805 -0.7628 1.1572 -50.5832 34.4114 66.4769 -55.3289 -15.7760 -29.6089 -65.6876 0.7801 1.2084 108.3771 47.9688 -35.5942 -0.8060 0.4125 54.2015 44.6124 0.0000 0.0000 -45.3808 -15.8978 6.6825 134.4218 73.6161 121.3764 -38.6547 0.0000 0.0000 35.0337 -10.6394 -3.3668 97.2258 65.1293 71.8650
3.1507 -31.0693 -0.0371 -1.6730 -13.2259 11.6183 0.0000 0.0000 0.0000 0.0000 0.0000 0.0000 24.2701 66.9067 16.1716 68.0135 0.9805 -1.4532 -53.9442 40.3734 71.6927 -25.5872 -6.1599 -26.6615 -67.3831 -0.9952 -1.4927 126.0852 23.7285 -12.1973 -6.1331 3.0046 52.1673 44.8160 0.0000 0.0000 -42.9488 -3.1888 1.2547 101.5357 80.6445 92.2165 -38.4511 0.0000 0.0000 37.0077 -7.4035 -2.4808 92.7350 73.6676 76.3100
3.4922 -31.1485 -0.0522 -1.6944 -16.5811 6.5682 0.0000 0.0000 0.0000 0.0000 0.0000 0.0000 23.1930 72.5567 17.1310 67.4630 3.4750 -5.2024 -39.7006 36.2949 84.4731 -19.1453 -4.2753 -24.9600 -67.2804 -3.4894 -5.2420 79.5870 47.5635 -55.7606 26.2179 -11.3184 46.1025 44.3573 0.0000 -0.0000 -40.7068 1.6461 -0.6107 47.3621 81.4097 41.3428 -38.9098 0.0000 0.0000 40.0511 2.7201 0.9916 37.9372 77.8381 31.0220
3.3592 -31.2914 -0.0563 -3.4027 -13.3112 12.5836 0.0000 0.0000 0.0000 0.0000 0.0000 0.0000 36.5896 67.3630 24.8521 67.0238 0.9753 -1.4727 -56.6155 38.8520 66.4303 -19.9498 -5.4844 -30.4684 -64.7316 -1.0207 -1.6104 120.0470 35.3340 -20.8201 -13.7762 5.8205 45.6455 46.1589 0.0000 0.0000 -42.1891 -3.6804 1.4202 60.4531 79.4963 51.7041 -37.1082 0.0000 0.0000 39.3377 -1.5549 -0.5558 55.9359 72.7414 42.7172
3.4990 -31.3837 -0.0641 -4.2102 -15.4040 13.9340 0.0000 0.0000 0.0000 0.0000 0.0000 0.0000 43.5060 68.7636 30.5424 67.4369 0.7364 -1.1034 -42.1648 32.2435 73.7228 -5.9300 -1.2734 -24.2198 -64.3550 -0.7831 -1.2446 118.7426 38.5598 -23.4020 6.2841 -3.7119 61.1064 47.0131 0.0000 0.0000 -43.3033 5.2659 -2.0916 46.1426 69.8677 33.1372 -36.2540 0.0000 -0.0000 40.7658 7.6805 2.8574 29.7159 66.0128 19.5550
3.4359 -31.7444 -0.0615 -3.1059 -14.7056 8.7739 0.0000 0.0000 0.0000 0.0000 0.0000 0.0000 31.0419 70.0120 22.0137 67.4715 0.5845 -0.8752 -42.4503 35.7086 79.3426 -5.4222 -1.3042 -27.0310 -64.7867 -0.6174 -0.9731 120.1888 41.3740 -24.5069 11.1052 -6.6737 61.9067 45.3661 0.0000 -0.0000 -43.9629 3.0476 -1.2304 59.9072 78.1691 50.1652 -37.9010 0.0000 0.0000 41.1992 4.9520 1.8623 27.1222 72.6371 20.1086
3.7501 -31.7819 -0.0505 -1.4113 -8.5313 4.2590 0.0000 0.0000 0.0000 0.0000 0.0000 0.0000 13.1385 60.9153 7.7483 67.3365 3.6540 -5.4832 -64.9906 49.5811 71.8927 -4.7376 -1.6774 -38.9770 -65.7010 -3.7807 -5.8523 102.9788 48.4373 -39.3876 -1.4898 0.6354 46.1945 43.6180 0.0000 0.0000 -42.6859 -8.5335 3.3397 145.0081 87.7871 143.7186 -39.6490 0.0000 0.0000 40.7538 -2.2463 -0.8345 22.3206 72.6336 16.5018
4.2547 -32.2757 -0.0521 -0.8692 -2.6447 7.2939 0.0000 0.0000 0.0000 0.0000 0.0000 0.0000 15.8760 58.5460 8.9386 67.1513 0.3940 -0.5936 -92.1670 49.4129 47.7871 -26.0809 -12.4578 -50.4634 -65.2376 -0.4098 -0.6403 120.1140 45.8831 -27.4044 10.5361 -6.9409 66.6674 42.9170 0.0000 0.0000 -44.3481 -13.7676 5.6338 53.3138 87.1646 51.0729 -40.3501 0.0000 0.0000 40.6023 -7.4322 -2.7528 34.6258 70.2147 24.7203
4.2230 -32.2931 -0.0532 -0.1477 1.8168 9.2310 0.0000 0.0000 0.0000 0.0000 0.0000 0.0000 15.7052 53.4385 7.9426 67.0746 0.7989 -1.2053 -115.4719 42.8860 27.8511 -22.3435 -13.3747 -61.3942 -65.4172 -0.8267 -1.2872 134.7614 29.1994 -12.3879 -6.0040 3.9713 66.9383 42.2057 0.0000 0.0000 -44.9472 -16.2142 6.7447 15.5458 77.0875 12.4128 -41.0614 0.0000 0.0000 41.4192 -6.6366 -2.5114 22.5556 58.5564 12.7592
4.5329 -32.3032 -0.0547 1.7477 10.2122 9.9327 0.0000 0.0000 0.0000 0.0000 0.0000 0.0000 11.7651 45.6830 4.9700 66.4363 -0.9702 1.4815 -133.5277 24.4010 10.6074 -7.1960 -4.7340 -66.6400 -65.7973 0.9828 1.5193 137.3266 -13.6930 5.3705 -45.0958 12.4553 29.4513 40.3289 0.0000 0.0000 -45.9466 -24.3725 10.4616 4.1298 74.6229 3.1479 -42.9382 0.0000 0.0000 41.2979 -15.2182 -5.7641 24.3365 53.2742 12.3454
4.5424 -32.3527 -0.0631 2.4483 13.8951 10.0226 0.0000 0.0000 0.0000 0.0000 0.0000 0.0000 10.0873 42.0156 3.8823 66.8917 -0.1313 0.1988 -140.5525 -0.9790 -0.3510 17.6947 10.4770 -60.9983 -66.4743 0.1325 0.2022 134.0048 -24.1555 10.3783 -48.2596 9.6453 21.3334 39.4066 0.0000 0.0000 -46.1291 -28.9302 12.5369 -2.4092 78.3126 -1.9619 -43.8605 0.0000 -0.0000 40.1285 -26.1261 -9.6880 40.0269 58.8261 23.2083
4.7823 -32.4524 -0.0498 2.3093 8.0035 14.2214 0.0000 0.0000 0.0000 0.0000 0.0000 0.0000 15.8831 46.1505 6.8023 65.8021 -0.6756 1.0443 -135.6824 17.9872 7.3759 -4.7020 -2.7543 -60.7032 -65.6387 0.6778 1.0509 137.7666 -9.7574 3.7761 -37.5837 8.8941 25.7488 40.0703 0.0000 -0.0000 -47.5362 -22.6816 10.0950 28.0029 76.8170 22.3660 -43.1968 0.0000 0.0000 39.4463 -19.4019 -7.0142 34.0254 54.8292 18.0353
4.8707 -32.4860 -0.0425 2.4201 7.0412 15.9405 0.0000 0.0000 0.0000 0.0000 0.0000 0.0000 18.0041 46.8179 7.8469 65.7404 -0.2463 0.3812 -135.1333 20.0123 8.3324 -5.7042 -3.2550 -59.3933 -65.6142 0.2470 0.3831 139.2940 -1.6114 0.5978 -33.7152 9.4039 30.3725 40.1109 0.0000 0.0000 -48.0944 -21.7467 9.7980 35.6661 75.7536 28.0971 -43.1562 0.0000 0.0000 39.0577 -18.0156 -6.4363 34.3705 53.6574 17.7801
4.9228 -32.5216 -0.0361 3.5439 10.1724 16.8576 0.0000 0.0000 0.0000 0.0000 0.0000 0.0000 16.2566 43.2333 6.4786 65.9765 0.4653 -0.7168 -139.9861 5.6401 2.0550 7.5443 4.2338 -58.5525 -66.1668 -0.4635 -0.7114 139.5642 -8.0350 2.9633 -38.5950 9.3794 26.3713 39.1753 0.0000 -0.0000 -50.4300 -29.7115 14.2391 67.6401 83.3930 61.6599 -44.0917 0.0000 0.0000 36.1194 -28.0215 -9.3031 44.9196 53.4565 23.5186
4.9355 -32.7363 -0.0365 3.4963 8.8015 18.6419 0.0000 0.0000 0.0000 0.0000 0.0000 0.0000 18.7048 44.2187 7.6556 65.7939 0.4835 -0.7474 -138.8401 10.3765 3.9053 1.6899 0.9718 -59.7997 -66.0618 -0.4809 -0.7397 139.6987 -6.4593 2.3724 -37.1464 8.7889 25.7644 38.7487 0.0000 0.0000 -50.2259 -27.2517 12.9639 55.2237 79.2368 46.8241 -44.5184 0.0000 -0.0000 38.1826 -20.6040 -7.1996 35.1039 49.1003 16.4423
4.8984 -32.7525 -0.0383 4.9663 12.9366 19.0485 0.0000 0.0000 0.0000 0.0000 0.0000 0.0000 16.4941 40.7448 6.1618 66.2086 1.1621 -1.7823 -141.1852 -7.8752 -2.7783 17.0220 9.0672 -55.8345 -66.8375 -1.1467 -1.7378 135.3946 -21.4837 8.8991 -42.8509 6.2538 15.8510 37.2256 0.0000 0.0000 -50.2804 -30.6643 14.6635 39.4835 77.9284 32.3696 -46.0415 0.0000 0.0000 38.4485 -22.2973 -7.8626 31.6574 44.1903 13.1311
4.8548 -32.8024 -0.0388 5.2652 13.7237 19.1353 0.0000 0.0000 0.0000 0.0000 0.0000 0.0000 15.2984 38.8423 5.4220 66.2089 1.4599 -2.2389 -140.9628 -4.6893 -1.6631 14.5076 7.2816 -53.1213 -66.8232 -1.4411 -2.1844 136.5108 -19.7059 7.9255 -40.2372 6.5145 17.6619 37.2005 0.0000 0.0000 -50.1599 -30.6565 14.6200 32.8209 76.1437 25.9811 -46.0666 0.0000 0.0000 39.3815 -20.1519 -7.2772 29.4892 43.5150 11.9924
4.8358 -32.9376 -0.0382 4.9217 12.1331 19.8795 0.0000 0.0000 0.0000 0.0000 0.0000 0.0000 16.7221 40.1095 6.1423 65.6964 1.0711 -1.6589 -139.4879 3.3325 1.2301 6.2851 3.1683 -53.4710 -66.5685 -1.0523 -1.6028 137.4145 -16.2796 6.3812 -37.3855 6.0798 17.8408 37.9045 0.0000 0.0000 -50.3104 -28.6341 13.6687 37.1359 75.4597 29.1381 -45.3625 0.0000 0.0000 39.2915 -18.6204 -6.6987 31.1010 45.3947 13.2775
4.8169 -32.5922 -0.0410 6.6729 18.0137 19.2539 0.0000 0.0000 0.0000 0.0000 0.0000 0.0000 14.4254 37.8318 4.9666 66.7953 2.6433 -4.0082 -140.2411 -19.9249 -7.2684 25.6884 12.2371 -50.3610 -67.3352 -2.6119 -3.9203 137.8492 -19.2950 7.4962 -39.0156 8.7591 24.3971 36.3876 0.0000 0.0000 -49.3565 -32.0183 15.0206 31.8515 76.2230 25.2331 -46.8795 0.0000 0.0000 38.5977 -25.3398 -9.0023 35.6295 45.6060 15.3884
4.7649 -32.5438 -0.0400 7.5517 21.3605 18.5345 0.0000 0.0000 0.0000 0.0000 0.0000 0.0000 10.8077 33.2104 3.2317 67.1121 2.9519 -4.4492 -134.9329 -35.8632 -15.2938 39.2464 12.6220 -34.4669 -67.5648 -2.9218 -4.3663 136.8403 -24.3004 9.7346 -40.7245 7.7171 20.5994 35.3292 0.0000 0.0000 -49.5714 -36.3734 17.2521 49.6630 83.4160 44.8220 -47.9379 0.0000 0.0000 35.8394 -34.5807 -11.4959 52.2298 49.9585 25.7287
4.6808 -32.7692 -0.0475 6.4336 17.7502 18.8387 0.0000 0.0000 0.0000 0.0000 0.0000 0.0000 12.6082 35.6493 4.0688 66.1700 2.8335 -4.3478 -134.1349 -35.5942 -15.4685 30.9791 6.6946 -23.8349 -66.6871 -2.8032 -4.2593 137.4618 -21.0102 8.2571 -37.3760 8.0621 23.5376 35.5918 0.0000 0.0000 -50.1938 -37.5099 18.0727 38.1441 82.5185 33.7451 -47.6753 0.0000 0.0000 41.2749 -20.2950 -7.7128 32.4653 45.3959 13.8862
